<svg width="400" height="400" viewBox="0 0 400 400" fill="none" xmlns="http://www.w3.org/2000/svg">
<rect width="400" height="400" fill="#4ED87C"/>
<path d="M164.8 185.2H181.4V190H172V194.16H179.92V198.48H172V203.12H181.36V208H164.8V185.2ZM203.904 195.36V206.76C202.118 207.347 200.424 207.773 198.824 208.04C197.224 208.307 195.878 208.44 194.784 208.44C191.158 208.44 188.318 207.493 186.264 205.6C184.211 203.707 183.184 200.8 183.184 196.88C183.184 192.88 184.264 189.893 186.424 187.92C188.584 185.92 191.624 184.92 195.544 184.92C197.598 184.92 200.064 185.227 202.944 185.84C202.944 186.373 202.891 187.173 202.784 188.24C202.678 189.28 202.571 190.013 202.464 190.44L201.024 190.4C199.264 190.347 197.891 190.32 196.904 190.32C193.944 190.32 192.331 190.493 192.064 190.84C191.638 191.347 191.331 192.133 191.144 193.2C190.984 194.267 190.904 195.293 190.904 196.28C190.904 198.067 191.104 199.453 191.504 200.44C191.904 201.427 192.518 202.12 193.344 202.52C194.171 202.92 195.291 203.12 196.704 203.12H196.864V195.36H203.904ZM218.425 208.52C214.451 208.52 211.465 207.587 209.465 205.72C207.491 203.827 206.505 200.8 206.505 196.64C206.505 192.56 207.598 189.587 209.785 187.72C211.971 185.853 214.865 184.92 218.465 184.92C226.038 184.92 229.825 188.693 229.825 196.24C229.825 200.053 228.891 203.053 227.025 205.24C225.185 207.427 222.318 208.52 218.425 208.52ZM218.265 203.8C219.011 203.8 219.638 203.68 220.145 203.44C220.651 203.173 221.051 202.72 221.345 202.08C221.905 200.987 222.185 199.2 222.185 196.72C222.185 194.293 221.905 192.533 221.345 191.44C220.785 190.32 219.758 189.733 218.265 189.68C217.705 189.68 217.118 189.747 216.505 189.88C215.918 189.987 215.545 190.147 215.385 190.36C215.065 190.733 214.811 191.533 214.625 192.76C214.465 193.96 214.385 195.28 214.385 196.72C214.385 198.96 214.598 200.6 215.025 201.64C215.318 202.413 215.731 202.973 216.265 203.32C216.798 203.64 217.465 203.8 218.265 203.8Z" fill="#0F102A"/>
<path d="M63.8 185.2H80.4V190H71V194.16H78.92V198.48H71V203.12H80.36V208H63.8V185.2ZM102.904 195.36V206.76C101.118 207.347 99.4244 207.773 97.8244 208.04C96.2244 208.307 94.8777 208.44 93.7844 208.44C90.1577 208.44 87.3177 207.493 85.2644 205.6C83.211 203.707 82.1844 200.8 82.1844 196.88C82.1844 192.88 83.2644 189.893 85.4244 187.92C87.5844 185.92 90.6244 184.92 94.5444 184.92C96.5977 184.92 99.0644 185.227 101.944 185.84C101.944 186.373 101.891 187.173 101.784 188.24C101.678 189.28 101.571 190.013 101.464 190.44L100.024 190.4C98.2644 190.347 96.891 190.32 95.9044 190.32C92.9444 190.32 91.331 190.493 91.0644 190.84C90.6377 191.347 90.331 192.133 90.1444 193.2C89.9844 194.267 89.9044 195.293 89.9044 196.28C89.9044 198.067 90.1044 199.453 90.5044 200.44C90.9044 201.427 91.5177 202.12 92.3444 202.52C93.171 202.92 94.291 203.12 95.7044 203.12H95.8644V195.36H102.904ZM117.425 208.52C113.451 208.52 110.465 207.587 108.465 205.72C106.491 203.827 105.505 200.8 105.505 196.64C105.505 192.56 106.598 189.587 108.785 187.72C110.971 185.853 113.865 184.92 117.465 184.92C125.038 184.92 128.825 188.693 128.825 196.24C128.825 200.053 127.891 203.053 126.025 205.24C124.185 207.427 121.318 208.52 117.425 208.52ZM117.265 203.8C118.011 203.8 118.638 203.68 119.145 203.44C119.651 203.173 120.051 202.72 120.345 202.08C120.905 200.987 121.185 199.2 121.185 196.72C121.185 194.293 120.905 192.533 120.345 191.44C119.785 190.32 118.758 189.733 117.265 189.68C116.705 189.68 116.118 189.747 115.505 189.88C114.918 189.987 114.545 190.147 114.385 190.36C114.065 190.733 113.811 191.533 113.625 192.76C113.465 193.96 113.385 195.28 113.385 196.72C113.385 198.96 113.598 200.6 114.025 201.64C114.318 202.413 114.731 202.973 115.265 203.32C115.798 203.64 116.465 203.8 117.265 203.8Z" fill="#0F102A"/>
<path d="M265.8 185.2H282.4V190H273V194.16H280.92V198.48H273V203.12H282.36V208H265.8V185.2ZM304.904 195.36V206.76C303.118 207.347 301.424 207.773 299.824 208.04C298.224 208.307 296.878 208.44 295.784 208.44C292.158 208.44 289.318 207.493 287.264 205.6C285.211 203.707 284.184 200.8 284.184 196.88C284.184 192.88 285.264 189.893 287.424 187.92C289.584 185.92 292.624 184.92 296.544 184.92C298.598 184.92 301.064 185.227 303.944 185.84C303.944 186.373 303.891 187.173 303.784 188.24C303.678 189.28 303.571 190.013 303.464 190.44L302.024 190.4C300.264 190.347 298.891 190.32 297.904 190.32C294.944 190.32 293.331 190.493 293.064 190.84C292.638 191.347 292.331 192.133 292.144 193.2C291.984 194.267 291.904 195.293 291.904 196.28C291.904 198.067 292.104 199.453 292.504 200.44C292.904 201.427 293.518 202.12 294.344 202.52C295.171 202.92 296.291 203.12 297.704 203.12H297.864V195.36H304.904ZM319.425 208.52C315.451 208.52 312.465 207.587 310.465 205.72C308.491 203.827 307.505 200.8 307.505 196.64C307.505 192.56 308.598 189.587 310.785 187.72C312.971 185.853 315.865 184.92 319.465 184.92C327.038 184.92 330.825 188.693 330.825 196.24C330.825 200.053 329.891 203.053 328.025 205.24C326.185 207.427 323.318 208.52 319.425 208.52ZM319.265 203.8C320.011 203.8 320.638 203.68 321.145 203.44C321.651 203.173 322.051 202.72 322.345 202.08C322.905 200.987 323.185 199.2 323.185 196.72C323.185 194.293 322.905 192.533 322.345 191.44C321.785 190.32 320.758 189.733 319.265 189.68C318.705 189.68 318.118 189.747 317.505 189.88C316.918 189.987 316.545 190.147 316.385 190.36C316.065 190.733 315.811 191.533 315.625 192.76C315.465 193.96 315.385 195.28 315.385 196.72C315.385 198.96 315.598 200.6 316.025 201.64C316.318 202.413 316.731 202.973 317.265 203.32C317.798 203.64 318.465 203.8 319.265 203.8Z" fill="#0F102A"/>
</svg>
