<svg width="400" height="400" viewBox="0 0 400 400" fill="none" xmlns="http://www.w3.org/2000/svg">
<rect width="400" height="400" fill="#C7D04F"/>
<path d="M258.696 186.376C258.696 187.272 259.144 187.976 260.04 188.488C260.979 189 262.429 189.555 264.392 190.152C266.739 190.92 268.659 191.667 270.152 192.392C271.688 193.117 273.011 194.248 274.12 195.784C275.272 197.32 275.848 199.325 275.848 201.8C275.848 209.736 270.685 213.704 260.36 213.704C258.653 213.704 256.563 213.555 254.088 213.256C251.656 212.957 249.437 212.573 247.432 212.104C247.517 211.208 247.688 209.907 247.944 208.2C248.243 206.451 248.52 205.149 248.776 204.296C250.269 204.509 252.509 204.765 255.496 205.064C258.525 205.363 260.808 205.512 262.344 205.512C263.24 205.512 263.773 205.448 263.944 205.32C264.2 205.149 264.392 204.872 264.52 204.488C264.691 204.061 264.776 203.699 264.776 203.4C264.776 202.547 264.371 201.907 263.56 201.48C262.749 201.011 261.363 200.456 259.4 199.816C257.053 199.091 255.112 198.344 253.576 197.576C252.04 196.808 250.696 195.613 249.544 193.992C248.392 192.371 247.816 190.237 247.816 187.592C247.816 185.715 248.243 183.88 249.096 182.088C249.949 180.253 250.824 179.016 251.72 178.376C252.403 177.907 253.811 177.459 255.944 177.032C258.077 176.605 260.083 176.392 261.96 176.392C266.739 176.392 270.643 176.84 273.672 177.736C273.629 178.589 273.48 179.763 273.224 181.256C273.011 182.749 272.776 184.115 272.52 185.352L271.048 185.288C265.501 184.904 261.96 184.712 260.424 184.712C259.784 184.712 259.421 184.733 259.336 184.776C259.165 184.861 259.016 185.053 258.888 185.352C258.76 185.651 258.696 185.992 258.696 186.376ZM280.818 176.52H307.378V184.2H292.338V190.856H305.01V197.768H292.338V205.192H307.314V213H280.818V176.52ZM312.135 176.52H323.655V204.552H338.567V213H312.135V176.52ZM342.572 176.52H368.748V184.456H354.092V191.688H366.188V198.664H354.092V213H342.572V176.52Z" fill="#4E50D2"/>
</svg>
