<svg width="400" height="400" viewBox="0 0 400 400" fill="none" xmlns="http://www.w3.org/2000/svg">
<rect width="400" height="400" fill="#0F102A"/>
<path d="M228.56 183.36C228.56 183.92 228.84 184.36 229.4 184.68C229.987 185 230.893 185.347 232.12 185.72C233.587 186.2 234.787 186.667 235.72 187.12C236.68 187.573 237.507 188.28 238.2 189.24C238.92 190.2 239.28 191.453 239.28 193C239.28 197.96 236.053 200.44 229.6 200.44C228.533 200.44 227.227 200.347 225.68 200.16C224.16 199.973 222.773 199.733 221.52 199.44C221.573 198.88 221.68 198.067 221.84 197C222.027 195.907 222.2 195.093 222.36 194.56C223.293 194.693 224.693 194.853 226.56 195.04C228.453 195.227 229.88 195.32 230.84 195.32C231.4 195.32 231.733 195.28 231.84 195.2C232 195.093 232.12 194.92 232.2 194.68C232.307 194.413 232.36 194.187 232.36 194C232.36 193.467 232.107 193.067 231.6 192.8C231.093 192.507 230.227 192.16 229 191.76C227.533 191.307 226.32 190.84 225.36 190.36C224.4 189.88 223.56 189.133 222.84 188.12C222.12 187.107 221.76 185.773 221.76 184.12C221.76 182.947 222.027 181.8 222.56 180.68C223.093 179.533 223.64 178.76 224.2 178.36C224.627 178.067 225.507 177.787 226.84 177.52C228.173 177.253 229.427 177.12 230.6 177.12C233.587 177.12 236.027 177.4 237.92 177.96C237.893 178.493 237.8 179.227 237.64 180.16C237.507 181.093 237.36 181.947 237.2 182.72L236.28 182.68C232.813 182.44 230.6 182.32 229.64 182.32C229.24 182.32 229.013 182.333 228.96 182.36C228.853 182.413 228.76 182.533 228.68 182.72C228.6 182.907 228.56 183.12 228.56 183.36ZM242.626 177.2H249.866V185.56H256.066V177.2H263.306V200H256.066V190.16H249.866V200H242.626V177.2ZM280.552 195H273.912L272.712 200H265.352L272.712 177.2H282.112L289.152 200H281.752L280.552 195ZM277.192 182.12L274.832 190.56H279.592L277.352 182.12H277.192ZM299.141 177.2C302.261 177.2 304.807 177.493 306.781 178.08C308.781 178.667 310.327 179.773 311.421 181.4C312.541 183.027 313.101 185.36 313.101 188.4C313.101 191.653 312.514 194.133 311.341 195.84C310.167 197.52 308.594 198.64 306.621 199.2C304.647 199.733 302.154 200 299.141 200H291.141V177.2H299.141ZM304.501 194.56C304.821 194.24 305.047 193.413 305.181 192.08C305.314 190.747 305.381 189.52 305.381 188.4C305.381 186.987 305.274 185.867 305.061 185.04C304.874 184.187 304.527 183.507 304.021 183C303.221 182.12 301.847 181.68 299.901 181.68C299.554 181.68 299.034 181.707 298.341 181.76V195.04C298.794 195.093 299.501 195.12 300.461 195.12C301.447 195.12 302.314 195.08 303.061 195C303.834 194.893 304.314 194.747 304.501 194.56ZM327.417 200.52C323.444 200.52 320.457 199.587 318.457 197.72C316.484 195.827 315.497 192.8 315.497 188.64C315.497 184.56 316.59 181.587 318.777 179.72C320.964 177.853 323.857 176.92 327.457 176.92C335.03 176.92 338.817 180.693 338.817 188.24C338.817 192.053 337.884 195.053 336.017 197.24C334.177 199.427 331.31 200.52 327.417 200.52ZM327.257 195.8C328.004 195.8 328.63 195.68 329.137 195.44C329.644 195.173 330.044 194.72 330.337 194.08C330.897 192.987 331.177 191.2 331.177 188.72C331.177 186.293 330.897 184.533 330.337 183.44C329.777 182.32 328.75 181.733 327.257 181.68C326.697 181.68 326.11 181.747 325.497 181.88C324.91 181.987 324.537 182.147 324.377 182.36C324.057 182.733 323.804 183.533 323.617 184.76C323.457 185.96 323.377 187.28 323.377 188.72C323.377 190.96 323.59 192.6 324.017 193.64C324.31 194.413 324.724 194.973 325.257 195.32C325.79 195.64 326.457 195.8 327.257 195.8ZM355.44 200H346.44L340.56 177.2H348.24L351.28 193.96H351.48L354.72 177.2H362.24L365.56 193.96H365.68L368.76 177.2H376.12L370.24 200H361.28L358.56 185.44H358.32L355.44 200Z" fill="#4ED87C"/>
<path d="M35.56 183.36C35.56 183.92 35.84 184.36 36.4 184.68C36.9867 185 37.8933 185.347 39.12 185.72C40.5867 186.2 41.7867 186.667 42.72 187.12C43.68 187.573 44.5067 188.28 45.2 189.24C45.92 190.2 46.28 191.453 46.28 193C46.28 197.96 43.0533 200.44 36.6 200.44C35.5333 200.44 34.2267 200.347 32.68 200.16C31.16 199.973 29.7733 199.733 28.52 199.44C28.5733 198.88 28.68 198.067 28.84 197C29.0267 195.907 29.2 195.093 29.36 194.56C30.2933 194.693 31.6933 194.853 33.56 195.04C35.4533 195.227 36.88 195.32 37.84 195.32C38.4 195.32 38.7333 195.28 38.84 195.2C39 195.093 39.12 194.92 39.2 194.68C39.3067 194.413 39.36 194.187 39.36 194C39.36 193.467 39.1067 193.067 38.6 192.8C38.0933 192.507 37.2267 192.16 36 191.76C34.5333 191.307 33.32 190.84 32.36 190.36C31.4 189.88 30.56 189.133 29.84 188.12C29.12 187.107 28.76 185.773 28.76 184.12C28.76 182.947 29.0267 181.8 29.56 180.68C30.0933 179.533 30.64 178.76 31.2 178.36C31.6267 178.067 32.5067 177.787 33.84 177.52C35.1733 177.253 36.4267 177.12 37.6 177.12C40.5867 177.12 43.0267 177.4 44.92 177.96C44.8933 178.493 44.8 179.227 44.64 180.16C44.5067 181.093 44.36 181.947 44.2 182.72L43.28 182.68C39.8133 182.44 37.6 182.32 36.64 182.32C36.24 182.32 36.0133 182.333 35.96 182.36C35.8533 182.413 35.76 182.533 35.68 182.72C35.6 182.907 35.56 183.12 35.56 183.36ZM49.6259 177.2H56.8659V185.56H63.0659V177.2H70.3059V200H63.0659V190.16H56.8659V200H49.6259V177.2ZM87.5516 195H80.9116L79.7116 200H72.3516L79.7116 177.2H89.1116L96.1516 200H88.7516L87.5516 195ZM84.1916 182.12L81.8316 190.56H86.5916L84.3516 182.12H84.1916ZM106.141 177.2C109.261 177.2 111.807 177.493 113.781 178.08C115.781 178.667 117.327 179.773 118.421 181.4C119.541 183.027 120.101 185.36 120.101 188.4C120.101 191.653 119.514 194.133 118.341 195.84C117.167 197.52 115.594 198.64 113.621 199.2C111.647 199.733 109.154 200 106.141 200H98.1406V177.2H106.141ZM111.501 194.56C111.821 194.24 112.047 193.413 112.181 192.08C112.314 190.747 112.381 189.52 112.381 188.4C112.381 186.987 112.274 185.867 112.061 185.04C111.874 184.187 111.527 183.507 111.021 183C110.221 182.12 108.847 181.68 106.901 181.68C106.554 181.68 106.034 181.707 105.341 181.76V195.04C105.794 195.093 106.501 195.12 107.461 195.12C108.447 195.12 109.314 195.08 110.061 195C110.834 194.893 111.314 194.747 111.501 194.56ZM134.417 200.52C130.444 200.52 127.457 199.587 125.457 197.72C123.484 195.827 122.497 192.8 122.497 188.64C122.497 184.56 123.59 181.587 125.777 179.72C127.964 177.853 130.857 176.92 134.457 176.92C142.03 176.92 145.817 180.693 145.817 188.24C145.817 192.053 144.884 195.053 143.017 197.24C141.177 199.427 138.31 200.52 134.417 200.52ZM134.257 195.8C135.004 195.8 135.63 195.68 136.137 195.44C136.644 195.173 137.044 194.72 137.337 194.08C137.897 192.987 138.177 191.2 138.177 188.72C138.177 186.293 137.897 184.533 137.337 183.44C136.777 182.32 135.75 181.733 134.257 181.68C133.697 181.68 133.11 181.747 132.497 181.88C131.91 181.987 131.537 182.147 131.377 182.36C131.057 182.733 130.804 183.533 130.617 184.76C130.457 185.96 130.377 187.28 130.377 188.72C130.377 190.96 130.59 192.6 131.017 193.64C131.31 194.413 131.724 194.973 132.257 195.32C132.79 195.64 133.457 195.8 134.257 195.8ZM162.44 200H153.44L147.56 177.2H155.24L158.28 193.96H158.48L161.72 177.2H169.24L172.56 193.96H172.68L175.76 177.2H183.12L177.24 200H168.28L165.56 185.44H165.32L162.44 200Z" fill="#4ED87C"/>
</svg>
